<svg width="128" height="128" xmlns="http://www.w3.org/2000/svg">

 <g>
  <title>background</title>
  <rect fill="none" id="canvas_background" height="402" width="582" y="-1" x="-1"/>
 </g>
 <g>
  <title>Layer 1</title>
  <ellipse stroke="null" ry="56.556156" rx="61.165744" id="svg_18" cy="70.559808" cx="63.99999" stroke-opacity="null" stroke-width="null" fill="#56ffaa"/>
  <path id="svg_2" fill="#C45527" d="m64.2,100.2l0,0c-1.7,0 -3,-1.3 -3,-3l0,-66.9c0,-1.6 1.3,-3 3,-3l0.1,0c1.6,0 3,1.3 3,3l0,66.9c-0.2,1.7 -1.5,3 -3.1,3"/>
  <path id="svg_3" fill="#7ACCCE" d="m70.5,51l-15,0c-4.1,0 -7.5,-3.4 -7.5,-7.5l0,-0.2c0,-4.1 3.4,-7.5 7.5,-7.5l15,0c4.1,0 7.5,3.4 7.5,7.5l0,0.2c0,4.2 -3.4,7.5 -7.5,7.5"/>
  <path id="svg_4" fill="#C45527" d="m103.3,100.6l-78.6,0c-0.8,0 -1.5,-0.7 -1.5,-1.5l0,-1.4c0,-0.8 0.7,-1.5 1.5,-1.5l78.6,0c0.8,0 1.5,0.7 1.5,1.5l0,1.4c0,0.9 -0.7,1.5 -1.5,1.5"/>
  <path id="svg_5" fill="#F7B2B8" d="m90.1,96.4l-54.2,0c-4.1,0 -7.5,-3.4 -7.5,-7.5l0,-0.1c0,-4.1 3.4,-7.5 7.5,-7.5l54.2,0c4.1,0 7.5,3.4 7.5,7.5l0,0.1c0,4.1 -3.4,7.5 -7.5,7.5"/>
  <path id="svg_6" fill="#F3D04C" d="m81.8,81.3l-37.6,0c-4.1,0 -7.5,-3.4 -7.5,-7.5l0,-0.1c0,-4.1 3.4,-7.5 7.5,-7.5l37.6,0c4.1,0 7.5,3.4 7.5,7.5l0,0.1c0,4.1 -3.4,7.5 -7.5,7.5"/>
  <path stroke="null" id="svg_7" fill="#F48053" d="m75.4,66.2l-24.9,0c-4.1,0 -7.5,-3.4 -7.5,-7.5l0,-0.2c0,-4.1 3.4,-7.5 7.5,-7.5l24.9,0c4.1,0 7.5,3.4 7.5,7.5l0,0.2c0,4.1 -3.4,7.5 -7.5,7.5"/>
  <path id="svg_8" fill="#AAD6D6" d="m54.8,47.8c0,-0.3 -0.1,-0.7 -0.4,-0.9c-0.8,-0.9 -1.3,-2 -1.3,-3.3l0,-0.1c0,-1.3 0.5,-2.4 1.3,-3.3c0.2,-0.3 0.4,-0.6 0.4,-0.9l0,0c0,-1.3 -1.6,-1.9 -2.4,-0.9c-1.3,1.4 -2,3.2 -2,5.2l0,0.1c0,2 0.8,3.8 2,5.2c0.8,0.8 2.4,0.2 2.4,-1.1l0,0z"/>
  <path id="svg_9" fill="#F58D63" d="m50.3,62.8c0,-0.3 -0.1,-0.7 -0.4,-0.9c-0.8,-0.9 -1.3,-2.1 -1.3,-3.3l0,-0.1c0,-1.3 0.5,-2.4 1.3,-3.3c0.2,-0.3 0.4,-0.6 0.4,-0.9l0,0c0,-1.3 -1.6,-1.9 -2.4,-0.9c-1.3,1.4 -2,3.2 -2,5.2l0,0.1c0,2 0.8,3.8 2,5.2c0.8,0.8 2.4,0.2 2.4,-1.1l0,0z"/>
  <path id="svg_10" fill="#F5D779" d="m44.2,77.9c0,-0.3 -0.1,-0.7 -0.4,-0.9c-0.8,-0.9 -1.3,-2.1 -1.3,-3.3l0,-0.1c0,-1.3 0.5,-2.5 1.3,-3.3c0.2,-0.3 0.4,-0.6 0.4,-0.9l0,0c0,-1.3 -1.6,-1.9 -2.4,-0.9c-1.3,1.4 -2,3.2 -2,5.2l0,0.1c0,2 0.8,3.8 2,5.2c0.8,0.8 2.4,0.2 2.4,-1.1l0,0z"/>
  <path id="svg_11" fill="#F9C7C9" d="m35.7,93.2c0,-0.3 -0.1,-0.7 -0.3,-0.9c-0.8,-0.9 -1.3,-2 -1.3,-3.2l0,-0.1c0,-1.2 0.5,-2.4 1.3,-3.2c0.2,-0.3 0.3,-0.6 0.3,-0.9l0,0c0,-1.2 -1.5,-1.8 -2.4,-0.9c-1.2,1.3 -2,3.1 -2,5.1l0,0.1c0,2 0.7,3.7 2,5.1c0.8,0.8 2.4,0.2 2.4,-1.1l0,0z"/>
  <path id="svg_12" fill="#B84E2A" d="m103.3,96.2l-11.6,0c-0.5,0.1 -1.1,0.2 -1.7,0.2l-22.9,0l0,0.8c0,1.6 -1.3,3 -3,3l-0.1,0c-0.1,0 -0.1,0 -0.2,0l0,0.4l39.4,0c0.8,0 1.5,-0.7 1.5,-1.5l0,-1.4c0.1,-0.8 -0.6,-1.5 -1.4,-1.5"/>
  <path id="svg_13" fill="#B84E2A" d="m64.2,27.4l0,0c-0.1,0 -0.2,0 -0.2,0l0,8.5l3.2,0l0,-5.5c-0.1,-1.7 -1.4,-3 -3,-3m2.9,69l-3.2,0l0,3.8c0.1,0 0.1,0 0.2,0l0.1,0c1.6,0 3,-1.3 3,-3l0,-0.8l-0.1,0z"/>
  <path id="svg_14" fill="#F496A7" d="m90.1,81.2l-7.5,0c-0.2,0 -0.5,0 -0.7,0l-18,0l0,15.1l26.1,0c0.6,0 1.1,-0.1 1.7,-0.2c3.3,-0.8 5.8,-3.7 5.8,-7.3l0,-0.1c0.1,-4.1 -3.3,-7.5 -7.4,-7.5"/>
  <path id="svg_15" fill="#DFB747" d="m81.8,66.1l-5.6,0c-0.2,0 -0.5,0 -0.7,0l-11.6,0l0,15.1l17.8,0c0.2,0 0.5,0 0.7,0c3.8,-0.4 6.8,-3.6 6.8,-7.5l0,-0.1c0.1,-4.1 -3.3,-7.5 -7.4,-7.5"/>
  <path id="svg_16" fill="#E27650" d="m75.4,51l-4.2,0c-0.2,0 -0.5,0 -0.7,0l-6.6,0l0,15.1l11.5,0c0.2,0 0.5,0 0.7,0c3.8,-0.4 6.8,-3.6 6.8,-7.5l0,-0.2c0,-4 -3.4,-7.4 -7.5,-7.4"/>
  <path id="svg_17" fill="#71B8BC" d="m70.5,35.9l-6.6,0l0,15.1l6.6,0c0.2,0 0.5,0 0.7,0c3.8,-0.4 6.8,-3.6 6.8,-7.5l0,-0.2c0,-4 -3.4,-7.4 -7.5,-7.4"/>
 </g>
</svg>